<svg width="17" height="23" viewBox="0 0 17 23" fill="none" xmlns="http://www.w3.org/2000/svg">
<path d="M8.5 1C10.6179 1 12.3854 1.6985 13.834 3.09277C15.2816 4.4862 16 6.17853 16 8.2002C16 9.633 15.7517 10.8013 15.2812 11.7266C14.7811 12.7102 14.1711 13.6646 13.4502 14.5898L13.4453 14.5957C12.7292 15.5435 11.9734 16.5351 11.1787 17.5693C10.3459 18.6533 9.66967 19.9829 9.1416 21.5469C9.08647 21.6928 9.00253 21.7984 8.88672 21.8789C8.76914 21.9606 8.64486 22 8.5 22C8.35514 22 8.23086 21.9606 8.11328 21.8789C8.02652 21.8186 7.95747 21.7444 7.90527 21.6494L7.8584 21.5469C7.33067 19.9837 6.66062 18.6547 5.83984 17.5713C5.05597 16.5366 4.29417 15.5448 3.55469 14.5957C2.85381 13.6681 2.24657 12.7105 1.7334 11.7227C1.25328 10.7984 1.00002 9.63158 1 8.2002C1 6.17853 1.71836 4.4862 3.16602 3.09277C4.61461 1.6985 6.38207 1 8.5 1ZM8.5 4.9502C7.58774 4.9502 6.79096 5.26882 6.13672 5.89844C5.48187 6.52873 5.14258 7.30485 5.14258 8.2002C5.14263 9.09542 5.48198 9.87075 6.13672 10.501C6.791 11.1307 7.58764 11.4502 8.5 11.4502C9.41236 11.4502 10.209 11.1307 10.8633 10.501C11.518 9.87075 11.8574 9.09542 11.8574 8.2002C11.8574 7.30485 11.5181 6.52873 10.8633 5.89844C10.209 5.26882 9.41226 4.9502 8.5 4.9502Z" fill="#ED1C24" stroke="black"/>
</svg>
