<?xml version="1.0" encoding="UTF-8"?>
<svg xmlns="http://www.w3.org/2000/svg" width="1080" height="648" viewBox="0 0 1080 648">
  <defs>
    <style>
      .cls-1 {
        fill: #01aa52;
      }

      .cls-2 {
        fill: #b71122;
      }

      .cls-3 {
        stroke: #000;
      }

      .cls-3, .cls-4, .cls-5, .cls-6, .cls-7, .cls-8, .cls-9, .cls-10, .cls-11, .cls-12, .cls-13, .cls-14, .cls-15, .cls-16, .cls-17, .cls-18, .cls-19 {
        stroke-miterlimit: 10;
      }

      .cls-3, .cls-4, .cls-6, .cls-9, .cls-11, .cls-12, .cls-14, .cls-15, .cls-16, .cls-17, .cls-18 {
        fill: none;
      }

      .cls-3, .cls-10, .cls-12, .cls-13, .cls-15, .cls-19 {
        stroke-width: .5px;
      }

      .cls-20, .cls-5, .cls-7 {
        fill: #64bc46;
      }

      .cls-21 {
        fill: #dd1120;
      }

      .cls-22 {
        fill: #86d4f6;
      }

      .cls-23 {
        fill: #181113;
      }

      .cls-24 {
        fill: #a11;
      }

      .cls-4 {
        stroke: #df8b1c;
        stroke-width: 13px;
      }

      .cls-25 {
        fill: #750000;
      }

      .cls-5 {
        stroke: #cccc98;
      }

      .cls-5, .cls-11 {
        stroke-width: 2px;
      }

      .cls-26 {
        fill: #aabbbc;
      }

      .cls-27 {
        fill: #00589e;
      }

      .cls-28 {
        fill: #231f20;
      }

      .cls-6 {
        stroke: #cab900;
        stroke-width: 6px;
      }

      .cls-7 {
        stroke: #5eb23e;
      }

      .cls-7, .cls-17, .cls-18 {
        stroke-width: 3px;
      }

      .cls-29 {
        fill: #5488cb;
      }

      .cls-30 {
        fill: #ac1114;
      }

      .cls-31 {
        fill: #0f4496;
      }

      .cls-32 {
        fill: #2d2d2d;
      }

      .cls-33 {
        fill: #fff;
      }

      .cls-34 {
        fill: #bab;
      }

      .cls-35 {
        fill: #d0dfe4;
      }

      .cls-36 {
        fill: #eef;
      }

      .cls-37 {
        fill: #740200;
      }

      .cls-38 {
        fill: #ccccca;
      }

      .cls-39 {
        fill: #53bb44;
      }

      .cls-40 {
        fill: #67a4d9;
      }

      .cls-8 {
        stroke-width: .75px;
      }

      .cls-8, .cls-13 {
        stroke: #fff;
      }

      .cls-8, .cls-13, .cls-41, .cls-19 {
        fill: #d3cbcf;
      }

      .cls-42 {
        fill: #4eb8ea;
      }

      .cls-43 {
        fill: #b8aa00;
      }

      .cls-9, .cls-14 {
        stroke-width: .25px;
      }

      .cls-9, .cls-15, .cls-16 {
        stroke: #231f20;
      }

      .cls-10 {
        fill: #231f20;
      }

      .cls-10, .cls-12, .cls-14, .cls-18 {
        stroke: #231f20;
      }

      .cls-44 {
        fill: #555;
      }

      .cls-45 {
        fill: #991110;
      }

      .cls-11 {
        stroke: #797a7d;
      }

      .cls-46 {
        fill: #554;
      }

      .cls-47 {
        fill: #baa;
      }

      .cls-48 {
        fill: #eeeeed;
      }

      .cls-49 {
        fill: #d3d2d7;
      }

      .cls-50 {
        fill: #0ad;
      }

      .cls-51 {
        fill: #23ab4f;
      }

      .cls-52 {
        fill: #c7eade;
      }

      .cls-17 {
        stroke: #ed1c24;
      }

      .cls-53 {
        fill: #a7cf38;
      }

      .cls-54 {
        fill: #0079bd;
      }

      .cls-55 {
        fill: #706661;
      }

      .cls-56 {
        fill: #ed1c24;
      }

      .cls-57 {
        fill: #e82326;
      }

      .cls-58 {
        fill: #ffef89;
      }

      .cls-59 {
        fill: #223398;
      }

      .cls-60 {
        fill: #a51210;
      }

      .cls-19 {
        stroke: #d3cbcf;
      }

      .cls-61 {
        fill: #485201;
      }

      .cls-62 {
        fill: #2d2a2b;
      }
    </style>
  </defs>
  <g id="bg">
    <rect class="cls-55" width="1080" height="648"/>
  </g>
  <g id="roads">
    <path class="cls-55" d="M1025.51,648h10.49c-3.48-.11-6.98-.09-10.49,0Z"/>
    <path class="cls-55" d="M49.53,0l65.81,96.08,181.6,551.92h728.57c3.52-.09,7.02-.11,10.49,0h44.59V0H49.53Z"/>
  </g>
  <g id="structure">
    <g id="Layer_24" data-name="Layer 24">
      <polyline class="cls-62" points="366.06 124.41 362 112.68 378.76 106.87 384.61 123.74 371.99 128.11"/>
    </g>
    <g id="Layer_6" data-name="Layer 6">
      <g id="Layer_5" data-name="Layer 5">
        <path class="cls-53" d="M971.57,610.52l18.76-152.97-1.28-24.12-4.66-152.5-3.61-.23-120.35-3.84-121.11,63.38-93.15,129.38s-7.81-.99-7.75,7.17c.06,8.16,8.27,7.75,8.27,7.75,0,0,.29,8.39.17,10.43,16.08,20.5,7.69,34.72,7.69,34.72l4.66,8.16s-7.22.7-6.76,9.09c-12.82,75.03-79.46,73.92-79.46,73.92l-.58,27.17h377.59l21.55-37.48Z"/>
      </g>
      <path class="cls-33" d="M299.3.18l30.78,86,44.35,21.91,1.83,5.48,3.91-1.3,3.39,10.7s-12.52,3.91-12.52,3.91c-4.84-2.57-9.68-5.13-14.52-7.7-3.27-1.73-9.12-6.6-12.82-3.52-3.7,3.08-1.18,9.91.08,13.53,2.29,6.58,4.59,13.15,6.88,19.73,1.62,4.65,3.24,9.3,4.86,13.94.8,2.29,1.59,4.57,2.39,6.86.49,1.41,1.21,3.68,2.24,4.75.29.3.64.53,1,.73,1.85,1.01,5.13,1.38,6.98.17,2.1-1.37,3.48-4.56,4.43-6.76,1.24-2.88,2.48-5.77,3.72-8.65,1.3-3.03,2.6-6.05,3.9-9.08,0,0,5.74-1.83,5.74-1.83,1.19-.38,5.33,16.94,5.39,18.35.49,11.99-3.13,24.1-10.11,33.86-1.67,2.34-3.56,4.6-4.48,7.33-1.17,3.48-1.22,7.78-.92,12.17-.03-.48,8.26-1.21,9.02-1.39,5.1-1.19,9.39-3.91,14.83-2.59,3.2.78,6.14,2.83,7.71,5.73,2.35,4.33,1.4,9.6,1.46,14.53.08,7.19,2.28,14.07,2.41,21.27.08,4.75-.22,9.49-.07,14.24.14,4.68,1.26,9.26,1.34,13.93.08,5.15-.34,14.66-6.02,16.98-1.18.48-2.46.7-3.67,1.09-.93.3-1.82.71-2.73,1.07-2.52.99-5.18,1.6-7.88,1.82-2.47.2-4.67.1-6.99,1.18-1.98.93-3.12,3-5.08,3.94.34,10.65.94,21.08,4.52,31.75,3.16,9.42,7.95,18.55,15.41,25.11,8.49,7.46,19.99,11.04,31.29,10.99,22.75-.1,40.19-14,58.86-24.98,11.41-6.71,22.82-13.42,34.23-20.13l33.13-32.09c4.03-3.73,8.05-7.47,12.08-11.2,2.01-1.86,4.08-3.68,6.05-5.59,1.5-1.45,3.44-2.62,4.67-4.32,3.57-4.97-3.54-13.55-5.14-18.3-2.3-6.84-2.83-14.2-2.3-21.37.52-7.02,2.05-14.06,5.34-20.28,3.05-5.75,7.5-10.62,11.15-16,3.37-4.97,1.94-11.34-1.81-15.86-1.95-2.35-4.57-3.94-7.39-5.03-5.83-2.26-12.18-2.45-18.25-3.7-10.72-2.22-22.93-3.24-31.56-10.71-14.76-12.78-19.73-28.28-18.39-47.32.39-5.53.59-5.3,5.9-6.97l-2.74-8.61-5.09,1.7-5.74-16.57,4.7-1.7-2.74-9.78-5.22,1.7-1.43-4.96,4.04-1.3-2.48-8.35-78.52,27.52-29.09-84.33,1.76-1.37h2.35l2.54-1.17,115.63.59-.2,23.28-7.43,14.87s21.41,67.35,21.52,67.69c.63,1.99-4.65,8.45-5.57,10.42-2.45,5.25-3.43,10.93-2.15,16.65,1.07,4.78,3.53,9.16,6.56,13.01,7,8.86,17.27,15.07,28.36,17.16,3.91.73,8.52.75,11.19-2.21,2.2-2.45,2.41-28.22,2.3-28.22h-4.3l1.83-50.93,27.13,2.09-1.04,6.26c1.62,3.77,3.23,7.53,4.85,11.3,3.77,8.78,7.54,17.56,11.31,26.34,4.32,10.05,8.63,20.1,12.95,30.15.97,1.69,1.59,3.7,2.36,5.49.8,1.87,1.6,3.73,2.4,5.6,1.6,3.73,3.25,7.45,4.81,11.2.57,1.37,1.02,2.78,1.85,4.03.66.98,1.44,1.78,2.53,2.26.8.35,1.65.54,2.49.77,2.86.75,5.65,1.8,8.3,3.13,1.29.65,2.56,1.35,3.79,2.11.65.4,1.29.82,1.92,1.26.57.39,1.14.97,1.76,1.28,3.13,2.38,5.96,5.15,8.44,8.21,3.13,3.86,5.71,8.16,7.77,12.68,1.83,4.02,2.53,10.59,6.66,12.95,1.28.73,2.75,1.06,4.22,1.25,8.9,1.21,18.36.74,27.35,1.13,8.23.36,16.46.71,24.69,1.07,9.86.43,19.71.85,29.57,1.28,10.91.47,21.82.94,32.74,1.42,11.4.49,22.8.99,34.19,1.48,11.31.49,22.63.98,33.94,1.47,10.66.46,21.32.92,31.98,1.38,9.43.41,18.87.82,28.3,1.23,7.64.33,15.28.66,22.91.99,5.27.23,10.54.46,15.81.68,2.33.1,4.67.2,7.01.3.06,0,.13,0,.19,0V0L299.3.18ZM896,51v-9,9Z"/>
      <path class="cls-53" d="M299.3.18l30.78,86,44.35,21.91,1.83,5.48,3.91-1.3,3.39,10.7s-12.52,3.91-12.52,3.91c-4.84-2.57-9.68-5.13-14.52-7.7-3.27-1.73-9.12-6.6-12.82-3.52-3.7,3.08-1.18,9.91.08,13.53,2.29,6.58,4.59,13.15,6.88,19.73,1.62,4.65,3.24,9.3,4.86,13.94.8,2.29,1.59,4.57,2.39,6.86.49,1.41,1.21,3.68,2.24,4.75.29.3.64.53,1,.73,1.85,1.01,5.13,1.38,6.98.17,2.1-1.37,3.48-4.56,4.43-6.76,1.24-2.88,2.48-5.77,3.72-8.65,1.3-3.03,2.6-6.05,3.9-9.08,0,0,5.74-1.83,5.74-1.83,1.19-.38,5.33,16.94,5.39,18.35.49,11.99-3.13,24.1-10.11,33.86-1.67,2.34-3.56,4.6-4.48,7.33-1.17,3.48-1.22,7.78-.92,12.17-.03-.48,8.26-1.21,9.02-1.39,5.1-1.19,9.39-3.91,14.83-2.59,3.2.78,6.14,2.83,7.71,5.73,2.35,4.33,1.4,9.6,1.46,14.53.08,7.19,2.28,14.07,2.41,21.27.08,4.75-.22,9.49-.07,14.24s1.26,9.26,1.34,13.93c.08,5.15-.34,14.66-6.02,16.98-1.18.48-2.46.7-3.67,1.09-.93.3-1.82.71-2.73,1.07-2.52.99-5.18,1.6-7.88,1.82-2.47.2-4.67.1-6.99,1.18-1.98.93-3.12,3-5.08,3.94.34,10.65.94,21.08,4.52,31.75,3.16,9.42,7.95,18.55,15.41,25.11,8.49,7.46,19.99,11.04,31.29,10.99,22.75-.1,40.19-14,58.86-24.98,11.41-6.71,22.82-13.42,34.23-20.13l33.13-32.09c4.03-3.73,8.05-7.47,12.08-11.2,2.01-1.86,4.08-3.68,6.05-5.59,1.5-1.45,3.44-2.62,4.67-4.32,3.57-4.97-3.54-13.55-5.14-18.3-2.3-6.84-2.83-14.2-2.3-21.37.52-7.02,2.05-14.06,5.34-20.28,3.05-5.75,7.5-10.62,11.15-16,3.37-4.97,1.94-11.34-1.81-15.86-1.95-2.35-4.57-3.94-7.39-5.03-5.83-2.26-12.18-2.45-18.25-3.7-10.72-2.22-22.93-3.24-31.56-10.71-14.76-12.78-19.73-28.28-18.39-47.32.39-5.53.59-5.3,5.9-6.97l-2.74-8.61-5.09,1.7-5.74-16.57,4.7-1.7-2.74-9.78-5.22,1.7-1.43-4.96,4.04-1.3-2.48-8.35s-78.52,27.52-78.52,27.52c0,0-1.33-3.85-1.4-4.06-5.46-15.83-10.92-31.67-16.39-47.5-2.72-7.89-5.46-15.77-8.16-23.67-1.49-4.36-3.43-8.55,1.87-10.98,4.02-1.85,9.17-.62,13.41-.6,11.44.06,22.88.12,34.33.17,23.18.12,46.36.24,69.54.35l-.2,23.28-7.43,14.87s21.41,67.35,21.52,67.69c.63,1.99-4.65,8.45-5.57,10.42-2.45,5.25-3.43,10.93-2.15,16.65,1.07,4.78,3.53,9.16,6.56,13.01,7,8.86,17.27,15.07,28.36,17.16,3.91.73,8.52.75,11.19-2.21,2.2-2.45,2.41-28.22,2.3-28.22h-4.3l1.83-50.93,27.13,2.09-1.04,6.26c1.62,3.77,3.23,7.53,4.85,11.3,3.77,8.78,7.54,17.56,11.31,26.34,4.32,10.05,8.63,20.1,12.95,30.15.97,1.69,1.59,3.7,2.36,5.49.8,1.87,1.6,3.73,2.4,5.6,1.6,3.73,3.25,7.45,4.81,11.2.57,1.37,1.02,2.78,1.85,4.03.66.98,1.44,1.78,2.53,2.26.8.35,1.65.54,2.49.77,2.86.75,5.65,1.8,8.3,3.13,1.29.65,2.56,1.35,3.79,2.11.65.4,1.29.82,1.92,1.26.57.39,1.14.97,1.76,1.28,3.13,2.38,5.96,5.15,8.44,8.21,3.13,3.86,5.71,8.16,7.77,12.68,1.83,4.02,2.53,10.59,6.66,12.95,1.28.73,2.75,1.06,4.22,1.25,8.9,1.21,18.36.74,27.35,1.13,8.23.36,16.46.71,24.69,1.07,9.86.43,19.71.85,29.57,1.28,10.91.47,21.82.94,32.74,1.42,11.4.49,22.8.99,34.19,1.48,11.31.49,22.63.98,33.94,1.47,10.66.46,21.32.92,31.98,1.38,9.43.41,18.87.82,28.3,1.23,7.64.33,15.28.66,22.91.99,5.27.23,10.54.46,15.81.68,2.33.1,4.67.2,7.01.3.06,0,.13,0,.19,0V0L299.3.18Z"/>
      <path class="cls-53" d="M48.83.18c20.84,31.41,43.55,62.83,64.39,94.24l183.27,553.87,45.44-14-108.75-187.08s-5.25-16.81-5.25-16.81c-.47-1.44-.93-2.88-1.4-4.32l-3.92-12.11c-2.01-6.22-4.03-12.43-6.04-18.65l-7.75-23.93c-3.02-9.32-6.04-18.64-9.06-27.96-3.32-10.24-6.64-20.49-9.95-30.73-3.48-10.75-6.96-21.5-10.45-32.25s-7.02-21.68-10.53-32.51-6.81-21.02-10.21-31.52c-3.16-9.76-6.32-19.52-9.48-29.28-2.78-8.59-5.57-17.19-8.35-25.78l-6.81-21.03c-2.97-9.19-6.99-18.19-8.16-27.84-.44-3.62-.12-6.47.52-9.98,1.31-7.2,5.47-13.41,9.14-19.59,6.94-11.69,13.8-23.41,20.67-35.14,9.29-15.86,18.56-31.74,27.84-47.62h42.6c11.11,7.19,22.22,14.38,33.33,21.56.67.43,3.64,2.27,7.57,1.57,4.76-.86,7.01-4.76,7.3-5.3-.07-2.64-.15-5.28-.22-7.92-1.32-3.3-2.63-6.61-3.95-9.91H48.83Z"/>
      <path class="cls-53" d="M970.98,252.43c.06,0,2.35,0,2.41,0l-2.22-252.44"/>
      <rect class="cls-20" x="461.3" y="491.04" width="5.48" height="32.87"/>
      <rect class="cls-20" x="460.65" y="529.76" width="5.48" height="43.97"/>
    </g>
    <g id="Layer_19" data-name="Layer 19">
      <path class="cls-5" d="M358.98,259.84c0-3.66,1.13-10.07-3.36-11.81-.61-.24-1.26-.33-1.91-.41-.47-.05-.93-.1-1.4-.07-1.38.09-2.61.8-3.71,1.59-1.15.83-1.61,1.91-2.32,3.13-1.09,1.88-2.18,3.75-3.27,5.63-2.72,4.69-5.45,9.38-8.17,14.08-1.36,2.35-2.72,4.69-4.09,7.04-.95,1.64-1.67,3.83-.8,5.66.38.8.65,1.4,1.37,1.89.83.56,1.6,1.2,2.38,1.84.54.44,1.13.57,1.7.92.8.49,1.38.84,1.63,1,1.05.68,2.3,1.4,4.79,2.84,5.71,3.29,7.37,4.02,8.22,4.37,2.16.9,3.3,1.18,4.62.98.37-.05,2.54-.26,3.54-1.93.74-1.23.77-2.76.77-4.2,0-10.86,0-21.71.01-32.57Z"/>
      <path class="cls-5" d="M317.35,300.69c3.24-.87,6.48,2.63,9.1,4.17,9.33,5.5,18.65,11,27.99,16.47,4.72,2.76,3.52,5.21,1.7,9.72-1.72,4.27-2.42,10.1-7.27,11.93-2.83,1.07-6.46.66-9.06-.83-5.6-3.18-11.21-6.37-16.81-9.55-4.07-2.31-8.14-4.63-12.21-6.94-3.95-2.24-8.47-4.58-4.17-9.46,1.87-2.12,3.15-4.96,4.6-7.38,1.43-2.41,2.53-6.32,5.24-7.77.3-.16.59-.27.89-.35Z"/>
      <path class="cls-39" d="M367,127.23s8.61,25.92,8.61,25.92c-1.88,4.14-3.75,8.28-5.63,12.43-.87,1.93-2.29,8.04-5.52,7.12-1.43-.41-2.03-2.64-2.45-3.84-.79-2.25-1.58-4.5-2.38-6.75-2.59-7.37-5.19-14.73-7.78-22.1-1.24-3.52-2.48-7.04-3.72-10.56-.62-1.76-1.24-3.52-1.86-5.28-.47-1.33-1.17-2.92-.7-4.35,1.1-3.37,7.48.65,8.98,1.37,3.39,1.65,6.78,3.29,10.17,4.94.32.15,2.16.76,2.28,1.11Z"/>
      <rect class="cls-53" x="353.32" y="131.33" width="18.94" height="24.25" transform="translate(-26.98 126.75) rotate(-19.12)"/>
      <path class="cls-26" d="M417.28,326.11h21.63c3.42,5.35,6.84,10.7,10.26,16.04-1.49.47-2.98.95-4.47,1.42,3.75,5.39,7.51,10.79,11.26,16.18-2.45,2.13-6.53,5.11-12.27,6.85-11.44,3.48-21.26-.43-24.26-1.76-3.16-1.14-10.32-4.19-16.24-11.54-6.67-8.28-7.77-17.06-8.02-20.35l22.5-2.54-.39-4.3Z"/>
    </g>
    <g id="Layer_20" data-name="Layer 20">
      <path class="cls-47" d="M601.03,21.96l317.39,23.75,1.57,84.56,9.88,7.43h18.34l18.74,3.49,1.96,79.08h-20.69v5.67s0,26.5,0,26.5c-14.7-.69-29.39-1.38-44.09-2.07l-95.79-4.49c-22.37-1.05-44.74-1.98-67.11-2.95-11.02-.48-22.03-.96-33.05-1.47-5.44-.25-11.1-1-16.54-.79-3.66.14-7.33,1.67-10.92.05-7.54-3.42-8.42-16.31-13.16-22.35-3.96-5.05-8.92-9.36-13.7-13.64-5.2-4.66-13.05-4.82-17.71-10.03-3.45-3.85-4.67-9.67-6.67-14.32-11.27-26.24-22.55-52.48-33.82-78.73l5.38-79.71Z"/>
      <path class="cls-35" d="M556.86,183.19c-3.32-.36-7.49-1.11-12.11-2.74-5.76-2.03-10.22-4.7-13.34-6.91-3.92-3.14-13.02-11.27-17.97-25.27-4.96-14.04-2.98-26.11-1.9-31.02-40.32,13.31-80.65,26.61-120.97,39.92-.16.05.26,3.98.27,4.25.15,2.39,1.49,4.55,1.58,6.91.08,2.02.31,3.99.45,6.01.23,3.32.31,7.44-1.11,10.52-1.08,2.34-1.52,4.9-2.01,7.44,1.02.54,1.79,1.56,2.02,3.15.69,4.86,1.43,9.92,3.84,14.28,2.47,4.47,6.58,7.69,9.62,11.74,1.06,1.41,2.25,3.17,3.31,5.09.82.58,1.47,1.49,1.75,2.79,1.73,7.84,2.88,15.97,3.11,24.09,1.43,4.1.92,9.24.79,13.3-.15,4.61.2,9.11-.35,13.71-.33,2.75-.82,5.47-1.4,8.17.25,4.23.04,8.42-1.62,12.5-1.83,4.46-5.35,7.74-9.96,9.2-3.04.96-5.81.96-8.76-.25-1.04-.42-2.06-1.18-3.11-1.53-2.39-.81-4.85.11-7.22.53-.61.11-1.21.09-1.78-.02-.06,6.69,0,13.9,1.74,23.35,1.88,10.14,4.84,18.22,7.12,23.58,2.47,3.82,10.09,14.55,24.82,20.35,15.28,6.02,28.65,2.96,32.97,1.79l76.65-43.26c11.25-10.14,22.49-20.27,33.74-30.41-.05-40.42-.11-80.84-.16-121.26Z"/>
      <path class="cls-20" d="M407.85,296.16l-3.42-75.9h-27.13v-10.96c2.4-2.89,5.06-6.53,7.57-10.96,7.04-12.43,10.47-26.95,3.88-40.33,38.02-11.99,76.05-23.98,114.07-35.98-.72,2.31-1.43,5.37-1.6,9.01-.26,5.37.86,10.68,2.37,15.81,1.43,4.85,2.76,10.56,5,15.09,3.57,7.19,12.29,13.71,18.71,18.14,8.32,5.74,16.22,8.91,21.91,10.7-.17,13.48-.35,26.96-.52,40.43l2.61,2.85v16.46l-2.09,1.92v46.15s-30.52,29.94-30.52,29.94c-15.43,8.99-30.86,17.97-46.29,26.96-7.13,4.15-13.93,8.95-21.47,12.35s-14.47,3.99-22.5,3.99l-2.61-3.91s-16.43-7.04-16.43-7.04c-3.5.78-4.32,1.47-6.66-1.48-2.88-3.63-8.04-8.25-9.77-12.57-4.95-12.3-6.99-25.69-6-38.91,7.04-2.17,14.09-4.34,21.13-6.51l-.24-5.25"/>
      <circle class="cls-55" cx="625.93" cy="246.18" r="50.57"/>
    </g>
    <g id="Layer_22" data-name="Layer 22">
      <path class="cls-46" d="M722.16,29.84l193.04,18.22s2.61,80.82,2.61,80.82c1.85,1.92,2.05,4.15,3.73,6.02.46.52,5.27,3.74,5.67,3.72,3.49-.12,37.56,0,37.56,0,0,1.39,0,61.18,0,61.18-4.37-.34-8.74-.68-13.11-1.02-3.04-.24-6.09-.47-9.13-.71-2.7-.22-6.63.11-7.96,2.94-.77,1.64-.36,3.94-.42,5.75-.13,4.23.57,9.99-1.19,13.94-1.91,4.3-7.41,2.45-10.98,2.29l-52.74-2.43s0-28.53,0-28.53c.13-8.71.26-17.43.39-26.14.07-4.51.75-9.49.21-13.97-.87-7.22-6.68-8.21-12.79-8.67-27.5-2.1-55-4.2-82.5-6.3-3.6-.27-59.68-4.49-59.67-4.58l7.26-102.5Z"/>
      <polygon class="cls-48" points="676.4 228.15 946.18 238.62 946.18 245.69 684.04 236.92 679.27 232.82 676.4 228.15"/>
    </g>
    <g id="Layer_23" data-name="Layer 23">
      <rect class="cls-34" x="734.3" y="35.13" width="141.42" height="93.03" rx="6" ry="6" transform="translate(9.17 -64.46) rotate(4.61)"/>
    </g>
    <g id="Layer_17" data-name="Layer 17">
      <polygon class="cls-43" points="0 .18 48.83 .18 113.22 94.42 296.48 648.29 0 648.29 0 .18"/>
      <polygon class="cls-50" points="0 .12 46.13 .12 106.96 94.38 280.09 648.35 0 648.35 0 .12"/>
    </g>
    <g id="Layer_18" data-name="Layer 18">
      <polygon class="cls-35" points="990.33 0 1000.91 243.3 1080 239.86 1080 0 990.33 0"/>
      <path class="cls-35" d="M1025.51,648h10.49c-3.48-.11-6.98-.09-10.49,0Z"/>
      <path class="cls-35" d="M1003.13,262.78l3.13,6.78,9.91,176.28-19.3,161.8-18.26,40.35h46.9c3.52-.09,7.02-.11,10.49,0h44v-388.6l-76.87,3.38Z"/>
    </g>
  </g>
  <g id="highlight_area" data-name="highlight area">
    <circle class="cls-41" cx="564.28" cy="536.19" r="72.14"/>
    <g id="border_road" data-name="border road">
      <path class="cls-13" d="M445.31,420.77l4.61,8.7,15.55,59.07.87,126.52-12.58,11.71h-105.03l-95.42-163.92s39.71-22.48,46.31-27.26c2.45-3.67,0-8.91,0-8.91l-40.37-24.29,37.22-63.79,122.16,70.43h20.45l6.22,11.74"/>
      <polygon class="cls-8" points="454.29 634.12 470.54 620.83 637.09 620.83 637.09 648 297.18 648 273.42 585.01 306.1 573.48 341.92 634.29 454.29 634.12"/>
      <path class="cls-41" d="M227.92,430.41l56.16-95.77s2.1-1.63-5.83-6.52c7.46-12.82,31.69-53.83,31.69-53.83l8.16,4.89,30.76-51.5s1.4-2.33,0-13.98c-4.89-12.82-54.99-153.32-54.99-153.32,0,0-1.86-4.19-8.85-7.92S208.12,7.73,208.12,7.73c0,0-4.89-2.8-10.72,0-4.43,5.13-55.46,91.81-55.46,91.81,0,0-2.33,5.83-.93,12.12-8.16,2.8-14.68,5.13-14.68,5.13l101.59,313.63Z"/>
      <path class="cls-19" d="M452.37,628.17l14.5-12.58-.87-127.92,10.49-18.35,108.17-61.34,4.89,8.04s-4.72,15.38,5.59,22.89c9.61,3.15,11.53,12.93,11.53,12.93,0,0,20.97,21.21,35.13-8.39,50.85-69.38,86.85-118.66,86.85-118.66l86.16-46.14s2.27-6.47-2.97-7.51c-6.47.17-134.91-4.89-134.91-4.89,0,0-3.99,2.16-6.64,5.42-2.1,4.19-19.17,35.3-64.28,21.5-6.67.17-29.91,24.82-44.41,38.1-5.77,5.07-16.78,15.55-16.78,15.55l-104.33,61.51h-21.84l-119.88-68.68s-2.45,0-3.5,1.4-35.65,61.81-35.65,61.81l40.25,24.41s1.4,1.63,1.34,4.02-1.63,3.73-2.56,4.49-46.02,27.26-46.02,27.26l96.47,165.15h103.28Z"/>
    </g>
    <path class="cls-20" d="M802.26,281.98c-40.45-1.8-80.89-3.6-121.34-5.4-2.15,3.35-5.03,7.26-8.84,11.25-4.07,4.27-8.09,7.5-11.51,9.89-9.91,23.13-19.83,46.26-29.74,69.39l44.11,24.34c16.87-23.15,33.74-46.3,50.61-69.45,25.57-13.34,51.13-26.68,76.7-40.02Z"/>
  </g>
  <g id="shadows">
    <rect class="cls-44" x="225.91" y="-5.6" width="18.44" height="99.53" transform="translate(393.02 -135.58) rotate(120.66)"/>
    <rect class="cls-44" x="214.63" y="19.18" width="18.44" height="111.51" transform="translate(402.47 -79.42) rotate(120.66)"/>
    <rect class="cls-44" x="221.12" y="38.09" width="18.44" height="163.65" transform="translate(450.95 -17.08) rotate(120.66)"/>
    <rect class="cls-44" x="229.51" y="83.2" width="18.44" height="180.63" transform="translate(509.74 56.64) rotate(120.66)"/>
    <rect class="cls-44" x="227.9" y="159.99" width="43.86" height="136.57" transform="translate(573.59 129.77) rotate(120.66)"/>
    <rect class="cls-62" x="385.08" y="148.47" width="5.41" height="26.67" transform="translate(-31.61 135.95) rotate(-19.12)"/>
    <rect class="cls-62" x="648.19" y="340.93" width="30.14" height="25.09" transform="translate(265.6 -284.27) rotate(30)"/>
    <rect class="cls-62" x="664.37" y="298.66" width="41.16" height="33.94" transform="translate(313.31 -340.62) rotate(35.74)"/>
    <rect class="cls-61" x="730.39" y="350.72" width="17.17" height="38.64" transform="translate(355.27 -361.93) rotate(35.74)"/>
    <rect class="cls-61" x="748.99" y="353.54" width="9.22" height="13.53" transform="translate(352.34 -372.3) rotate(35.74)"/>
    <rect class="cls-61" x="705.56" y="382.47" width="15.61" height="38.64" transform="translate(368.99 -341) rotate(35.74)"/>
    <rect class="cls-61" x="704.14" y="411.65" width="8.38" height="13.53" transform="translate(377.75 -334.92) rotate(35.74)"/>
    <rect class="cls-62" x="536.05" y="7.4" width="29.71" height="140.95" transform="translate(3.72 -22.87) rotate(2.39)"/>
    <rect class="cls-62" x="649.18" y="-26.29" width="16.51" height="103.54" transform="translate(592.67 680.21) rotate(-86.57)"/>
    <rect class="cls-62" x="573.63" y="40.04" width="16.83" height="46.97" transform="translate(4.84 -34.71) rotate(3.43)"/>
    <rect class="cls-62" x="754.91" y="-1.72" width="85.01" height="134.34" transform="translate(668.07 855.03) rotate(-85.39)"/>
    <rect class="cls-62" x="435.26" y="-26.56" width="36.66" height="97.04" transform="translate(431.64 475.55) rotate(-90)"/>
    <rect class="cls-62" x="895.21" y="201.67" width="31.77" height="32.54" transform="translate(639.04 1114.36) rotate(-86.57)"/>
    <rect class="cls-61" x="918.28" y="503.64" width="16.84" height="49.69" transform="translate(1370.26 1498.7) rotate(-144.26)"/>
    <rect class="cls-62" x="283.97" y="581.66" width="7.78" height="10.31" transform="translate(757.59 1041.31) rotate(160.19)"/>
    <rect class="cls-62" x="284.23" y="607.6" width="18.88" height="10.31" transform="translate(777.66 1089.69) rotate(160.19)"/>
    <rect class="cls-62" x="289.23" y="601.48" width="12.84" height="10.31" transform="translate(779.42 1077.14) rotate(160.19)"/>
    <rect class="cls-62" x="367.57" y="629.37" width="59.95" height="10.31" transform="translate(795.09 1269.04) rotate(180)"/>
    <rect class="cls-44" x="227.8" y="160.77" width="45.14" height="136.54" transform="translate(575.06 130.47) rotate(120.66)"/>
    <rect class="cls-44" x="251.46" y="274.55" width="27.95" height="35.43" transform="translate(652.2 212.97) rotate(120.66)"/>
    <rect class="cls-44" x="226.03" y="295.63" width="33.15" height="54.73" transform="translate(644.15 279.01) rotate(120.66)"/>
    <rect class="cls-62" x="931.41" y="278.79" width="14.23" height="15.64" transform="translate(596.28 1206.31) rotate(-86.57)"/>
    <path class="cls-18" d="M949.91,250.07c.32,2.21,1.47,7.95,6.27,12.97,3.27,3.42,6.83,5.04,8.9,5.8-2.29.22-5.69.85-9.31,2.76-6.95,3.67-10.12,9.64-11.2,11.95"/>
  </g>
  <g id="lines">
    <polyline class="cls-4" points="1031.3 0 1048.91 445.85 1034.43 591.22 1025.04 634.26 1017.22 648"/>
    <polyline class="cls-6" points="967.96 .81 970.98 222.01 947.49 221.28 948.35 252.44"/>
    <polyline class="cls-6" points="983.06 280.94 987.82 373.74 992.22 459.53 970.64 612.32 950.42 649.47"/>
    <polyline class="cls-17" points="644.85 468.73 740.13 338.8 765.98 325.11 860.53 275.03 947.44 278.42"/>
  </g>
  <g id="areas">
    <polyline class="cls-35" points="597.63 100.43 601.28 39.58 716.74 46.5 711.42 135.28 611.99 129.32"/>
    <rect class="cls-36" x="601.57" y="50.31" width="111.22" height="49.88" transform="translate(5.68 -39.18) rotate(3.43)"/>
    <rect class="cls-59" x="604.23" y="51.97" width="105.91" height="46.57" transform="translate(5.68 -39.18) rotate(3.43)"/>
    <rect class="cls-54" x="615.21" y="56.69" width="83.94" height="36.91" transform="translate(5.67 -39.18) rotate(3.43)"/>
    <g id="lagoon">
      <g id="Layer_13" data-name="Layer 13">
        <path class="cls-35" d="M389.75,330.69c2.31,1.64,7.29-.89,9.39-1.96,2.53-1.29,3.4-2.34,6.07-2.93,1.58-.35,2.1-.16,4.7-.39,3.15-.28,4.05-.7,6.65-1.09,2.42-.36,5.13-.32,10.57-.23,5.99.1,6.62.36,8.24-.34,2.8-1.22,2.56-2.75,5.55-3.8,2.56-.9,3.6-.08,6.55-1.1,1.83-.63,3.1-1.52,4.22-2.36,7.61-5.7,15.26-11.75,21.81-18.66,4.04-4.22,13.23-13.96,19.11-27.51.7-1.61.34-.96,3.98-10.05,2.17-5.43,3.24-8.15,3.98-10.8,1.88-6.8.48-7.92,1.83-11.91,1.88-5.52,5.78-6.9,11.84-12.18,4.22-3.67,13.42-11.69,16.21-22.43,2.68-10.31-1.49-19.47-2.55-21.72-5.1-10.83-18.07-23.25-33.81-20.74-11.34,1.81-20.24,10.55-23,18.97-1.31,3.99-1.69,8.22-2.04,12.4-.6,7.16-1.12,14.35-.72,21.52.21,3.83.69,7.67.32,11.49-.37,3.82-1.7,7.71-4.54,10.3-2.29,2.09-5.37,3.16-8.46,3.53-5.01.6-9.98-.75-14.98-.24-8.37.85-13.96,7.47-15.75,9.54-6.25,7.24-7.11,15.5-7.37,18.35-.48,5.27.63,6.9,1.91,25.26.3,4.24.41,6.57-1.16,8.56-2.25,2.85-5.72,2.15-15.23,3.93-7.93,1.49-11.93,2.29-13.7,5.09-1.05,1.66-.41,2.27-.51,11.82-.07,6.97-.43,8.75.91,9.7Z"/>
      </g>
      <path class="cls-31" d="M475.13,232.9c1.63-4.51,1.89-8.31,1.83-16.29-.11-13.56-.94-14.76-.47-22.34.49-7.86.78-11.88,3.49-15.72,4.42-6.27,11.45-7.91,13.19-8.31,6.7-1.55,12.21.27,14.57,1.24,8.09,3.32,11.75,9.93,12.78,12,.57,1.15,4.25,8.79,1.87,17.74-1.87,7.01-6.63,11.47-14.13,18.52-7.74,7.28-11.42,8.27-13.01,13.83-.9,3.15-.21,4.57-1.6,10.96-.75,3.45-1.68,6.11-2.87,9.65-2.08,6.19-4.23,12.59-7.52,18.96-3.56,6.9-8.52,12.5-18.42,23.69,0,0-3.35,3.79-14.24,12.59-.47.38-1.43,1.21-2.94,1.94-2.04.99-3.95,1.27-5.24,1.34-.95-.18-2.37-.35-4.02-.12-3.22.44-4.87,2.03-6.96,3.22-3.39,1.93-6.69,2-13.28,2.13-6.16.12-5.8-.96-10.27-.47-4.24.46-7.59,1.77-11.44,3.27-3.27,1.27-5.89,2.56-7.7,3.51.18-1.02.34-2.13.43-3.33.07-.85.11-1.67.12-2.44,1.61-.8,3.81-1.84,6.46-2.93,3.05-1.25,6.33-2.59,10.17-3.52,7.04-1.7,8.11-.11,14.08-2.08,3.13-1.03,6.72-2.22,7.66-4.96.36-1.04.83-3.73.48-6.73,0-.04,0-.06,0-.06-2.78-21.33-1.55-31.83-1.55-31.83.74-6.26,1.89-9.49,4.17-12.2,2.94-3.49,6.78-4.92,9.59-5.94,4.48-1.62,5.8-.97,14.28-2.15,12.54-1.74,15.09-3.93,16.01-4.81,2.44-2.34,3.25-5.02,4.46-8.37Z"/>
      <g id="Layer_9" data-name="Layer 9">
        <g id="Layer_10" data-name="Layer 10">
          <rect class="cls-49" x="724.16" y="286.49" width="202.95" height="367.62" rx="100" ry="100" transform="translate(430.14 -393.66) rotate(35.74)"/>
        </g>
        <rect class="cls-7" x="741.46" y="300.4" width="168.35" height="339.81" rx="84.17" ry="84.17" transform="translate(430.14 -393.66) rotate(35.74)"/>
      </g>
    </g>
    <g id="obelisk">
      <circle class="cls-41" cx="626.4" cy="245.69" r="22.72"/>
      <path class="cls-1" d="M614.28,229.38s11.24-8.8,24.23,0c-.7.64-10.02,10.02-10.02,10.02,0,0-2.91-.58-4.37,0-.87-.93-9.84-10.02-9.84-10.02Z"/>
      <path class="cls-1" d="M642.27,233.6s8.8,11.24,0,24.23c-.64-.7-10.02-10.02-10.02-10.02,0,0,.58-2.91,0-4.37.93-.87,10.02-9.84,10.02-9.84Z"/>
      <path class="cls-1" d="M610.12,257.83s-8.8-11.24,0-24.23c.64.7,10.02,10.02,10.02,10.02,0,0-.58,2.91,0,4.37-.93.87-10.02,9.84-10.02,9.84Z"/>
      <path class="cls-1" d="M638.25,262s-11.24,8.8-24.23,0c.7-.64,10.02-10.02,10.02-10.02,0,0,2.91.58,4.37,0,.87.93,9.84,10.02,9.84,10.02Z"/>
      <rect class="cls-32" x="623.37" y="242.84" width="5.65" height="5.3"/>
      <g id="gate">
        <rect class="cls-36" x="950.96" y="224.57" width="23.74" height="29.09"/>
        <rect class="cls-47" x="953.88" y="228.15" width="17.89" height="21.93"/>
        <rect class="cls-36" x="957.72" y="232.51" width="10.33" height="12.65"/>
      </g>
    </g>
    <circle class="cls-8" cx="563.92" cy="536.19" r="70.83"/>
    <circle class="cls-53" cx="563.92" cy="536.19" r="68.5"/>
    <polygon class="cls-41" points="522.74 490.46 504.21 533.47 521.42 576.94 564.27 595.41 607.68 578.05 626.21 535.04 609.01 491.57 566.15 473.1 522.74 490.46"/>
    <polygon class="cls-37" points="529.48 498.55 513.96 534.58 528.41 571.01 564.37 586.51 600.77 571.98 616.29 535.95 601.84 499.52 565.89 484.03 529.48 498.55"/>
    <rect class="cls-56" x="616.48" y="550.07" width="11.33" height="17.43" transform="translate(972.43 1318.13) rotate(-156.69)"/>
    <rect class="cls-56" x="502.56" y="500.99" width="11.33" height="17.43" transform="translate(773.3 1178.9) rotate(-156.69)"/>
    <rect class="cls-56" x="584.19" y="468.77" width="10.75" height="17.43" transform="translate(1261.37 124.96) rotate(113.31)"/>
    <rect class="cls-56" x="535.53" y="583.92" width="11.33" height="17.43" transform="translate(1299.6 330.1) rotate(113.31)"/>
    <g id="Layer_28" data-name="Layer 28">
      <rect class="cls-58" x="662.95" y="140.92" width="97.15" height="61.3" transform="translate(11.54 -42.26) rotate(3.43)"/>
    </g>
    <path class="cls-38" d="M471.13,550.91v45.42l2.49,2.36h27.01v-9.94c-3.76-4.04-7.99-9.25-12.01-15.75-5.07-8.19-8.26-15.92-10.29-22.1h-7.2Z"/>
    <path class="cls-20" d="M473.69,553.52v40.43h24.4v-2.54c-3.44-4.23-6.95-8.9-10.43-14.02-5.7-8.39-10.28-16.47-13.96-23.87Z"/>
    <path class="cls-26" d="M417.28,326.11h21.63c3.42,5.35,6.84,10.7,10.26,16.04-1.49.47-2.98.95-4.47,1.42,3.75,5.39,7.51,10.79,11.26,16.18-2.45,2.13-6.53,5.11-12.27,6.85-11.44,3.48-21.26-.43-24.26-1.76-3.16-1.14-10.32-4.19-16.24-11.54-6.67-8.28-7.77-17.06-8.02-20.35l22.5-2.54-.39-4.3Z"/>
  </g>
  <g id="insmainbldg">
    <rect class="cls-15" x="404.37" y="505.52" width="19.17" height="99.18"/>
    <rect class="cls-12" x="436.75" y="494.28" width="19.17" height="109.55"/>
    <path class="cls-12" d="M436.75,494.28c-4.22,0-13.02,0-12.98,0"/>
    <polyline class="cls-12" points="416.86 504.4 415.62 505.03 414.61 504.35 414.61 495.89 415.73 495.32 416.86 495.83"/>
    <polyline class="cls-12" points="419.17 495.89 418.02 495.32 416.86 495.83 416.86 504.4 417.85 505.03 419.17 504.35"/>
    <polyline class="cls-12" points="421.46 504.4 420.32 505.03 419.17 504.35 419.17 495.89 420.32 495.32 421.46 495.83"/>
    <polyline class="cls-12" points="423.54 504.29 422.5 505.07 421.46 504.44 421.46 495.79 422.5 495.39 423.54 495.97"/>
    <line class="cls-12" x1="414.61" y1="495.78" x2="412.31" y2="494.62"/>
    <line class="cls-12" x1="404.37" y1="514.72" x2="423.77" y2="514.72"/>
    <line class="cls-10" x1="404.39" y1="544.65" x2="423.79" y2="544.65"/>
    <line class="cls-10" x1="404.26" y1="565.13" x2="423.66" y2="565.13"/>
    <line class="cls-10" x1="404.39" y1="584.96" x2="423.79" y2="584.96"/>
    <line class="cls-10" x1="436.64" y1="584.96" x2="456.04" y2="584.96"/>
    <line class="cls-10" x1="436.75" y1="565.13" x2="456.15" y2="565.13"/>
    <line class="cls-10" x1="436.64" y1="544.65" x2="456.04" y2="544.65"/>
    <line class="cls-10" x1="436.64" y1="554.89" x2="456.04" y2="554.89"/>
    <line class="cls-10" x1="436.64" y1="523.91" x2="456.04" y2="523.91"/>
    <line class="cls-10" x1="436.75" y1="514.72" x2="456.15" y2="514.72"/>
    <line class="cls-10" x1="436.75" y1="505.26" x2="456.15" y2="505.26"/>
    <line class="cls-12" x1="434.5" y1="494.11" x2="434.5" y2="606.94"/>
    <line class="cls-12" x1="426.48" y1="494.11" x2="426.48" y2="606.94"/>
    <rect class="cls-12" x="412.68" y="612.4" width="7.34" height="7.34"/>
    <line class="cls-12" x1="414.54" y1="504.36" x2="412.24" y2="505.52"/>
    <polyline class="cls-12" points="439.49 617.04 438.63 615.8 439.57 614.79 451.35 614.79 452.14 615.92 451.43 617.04"/>
    <polyline class="cls-12" points="451.35 619.36 452.14 618.2 451.43 617.04 439.49 617.04 438.63 618.03 439.57 619.36"/>
    <polyline class="cls-12" points="439.49 621.64 438.63 620.5 439.57 619.36 451.35 619.36 452.14 620.5 451.43 621.64"/>
    <polyline class="cls-12" points="439.29 623.73 438.57 622.68 439.44 621.64 451.49 621.64 452.04 622.68 450.88 623.73"/>
    <line class="cls-12" x1="451.51" y1="614.79" x2="453.33" y2="613.2"/>
    <line class="cls-12" x1="439.46" y1="614.66" x2="437.63" y2="613.08"/>
    <circle class="cls-12" cx="429.4" cy="456.25" r="18.66"/>
    <circle class="cls-14" cx="429.4" cy="456.25" r="15.31"/>
    <rect class="cls-15" x="276.29" y="479.74" width="14.53" height="15.83" transform="translate(-205.84 207.11) rotate(-30)"/>
    <rect class="cls-15" x="284.2" y="493.44" width="14.53" height="15.83" transform="translate(-211.63 212.9) rotate(-30)"/>
    <rect class="cls-15" x="292.12" y="507.15" width="14.53" height="15.83" transform="translate(-217.42 218.7) rotate(-30)"/>
    <rect class="cls-15" x="300.03" y="520.85" width="14.53" height="15.83" transform="translate(-223.21 224.49) rotate(-30)"/>
    <rect class="cls-15" x="307.94" y="534.56" width="14.53" height="15.83" transform="translate(-229.01 230.28) rotate(-30)"/>
    <rect class="cls-15" x="315.85" y="548.26" width="14.53" height="15.83" transform="translate(-234.8 236.07) rotate(-30)"/>
    <rect class="cls-15" x="323.77" y="561.97" width="14.53" height="15.83" transform="translate(-240.59 241.87) rotate(-30)"/>
    <rect class="cls-15" x="316.45" y="456.49" width="14.53" height="15.83" transform="translate(-188.83 224.08) rotate(-30)"/>
    <rect class="cls-15" x="324.37" y="470.2" width="14.53" height="15.83" transform="translate(-194.63 229.87) rotate(-30)"/>
    <rect class="cls-15" x="332.28" y="483.9" width="14.53" height="15.83" transform="translate(-200.42 235.66) rotate(-30)"/>
    <rect class="cls-15" x="348.1" y="511.31" width="14.53" height="15.83" transform="translate(-212 247.25) rotate(-30)"/>
    <rect class="cls-15" x="356.02" y="525.02" width="14.53" height="15.83" transform="translate(-217.8 253.04) rotate(-30)"/>
    <rect class="cls-15" x="363.93" y="538.72" width="14.53" height="15.83" transform="translate(-223.59 258.83) rotate(-30)"/>
    <path class="cls-28" d="M283.45,473.41l-7.52-13.02,34.27-19.79,7.52,13.03-34.27,19.79ZM276.62,460.57l7.02,12.16,33.41-19.29-7.02-12.16-33.41,19.29Z"/>
    <path class="cls-28" d="M276.43,477.47l-7.52-13.03,24.56-14.18,7.26,13.17-24.31,14.04ZM269.59,464.63l7.02,12.16,23.45-13.54-6.78-12.3-23.69,13.68Z"/>
    <path class="cls-28" d="M349.97,589.3l-7.52-13.02,34.27-19.79,7.52,13.03-34.27,19.79ZM343.13,576.46l7.02,12.16,33.41-19.29-7.02-12.16-33.41,19.29Z"/>
    <path class="cls-28" d="M342.95,593.35l-7.52-13.03,24.56-14.18,7.26,13.17-24.31,14.04ZM336.11,580.51l7.02,12.16,23.45-13.54-6.78-12.3-23.69,13.68Z"/>
    <polyline class="cls-15" points="323.09 504.39 311.47 511.1 297.91 487.61 309.63 480.84"/>
    <line class="cls-15" x1="319.55" y1="484.62" x2="324.69" y2="493.52"/>
    <rect class="cls-15" x="329.1" y="525.35" width="20.28" height="27.13" transform="translate(-224.01 241.82) rotate(-30)"/>
    <polyline class="cls-14" points="313.55 477.62 313.75 476.4 315.03 476.79 319.07 483.97 318.81 484.89 317.63 484.79"/>
    <polyline class="cls-14" points="316.1 485.53 317.22 485.8 317.63 484.79 313.55 477.62 312.36 477.16 312.15 478.36"/>
    <polyline class="cls-14" points="310.79 479.17 310.99 478.01 312.15 478.36 316.19 485.71 315.76 486.65 314.7 486.47"/>
    <polyline class="cls-14" points="309.24 479.95 309.63 478.85 310.79 479.17 314.7 486.47 314.37 487.46 313.13 487.11"/>
    <line class="cls-14" x1="319.07" y1="483.9" x2="320.47" y2="483.9"/>
    <line class="cls-14" x1="315.03" y1="476.79" x2="315.62" y2="474.95"/>
    <polygon class="cls-9" points="313.7 488 308.67 478.98 315.62 474.95 320.81 483.89 313.7 488"/>
    <polyline class="cls-14" points="323.82 495.59 324.03 494.37 325.3 494.75 329.35 501.94 329.08 502.86 327.91 502.76"/>
    <polyline class="cls-14" points="326.37 503.5 327.5 503.77 327.91 502.76 323.82 495.59 322.63 495.13 322.43 496.33"/>
    <polyline class="cls-14" points="321.06 497.14 321.27 495.98 322.43 496.33 326.47 503.67 326.03 504.62 324.98 504.44"/>
    <polyline class="cls-14" points="319.52 497.92 319.9 496.82 321.06 497.14 324.98 504.44 324.64 505.42 323.41 505.08"/>
    <line class="cls-14" x1="329.35" y1="501.87" x2="330.74" y2="501.87"/>
    <line class="cls-14" x1="325.3" y1="494.75" x2="325.9" y2="492.92"/>
    <polygon class="cls-9" points="323.98 505.97 318.94 496.95 325.9 492.92 331.08 501.86 323.98 505.97"/>
    <polyline class="cls-14" points="347.54 539.23 347.75 538.01 349.02 538.4 353.06 545.58 352.8 546.5 351.62 546.4"/>
    <polyline class="cls-14" points="350.09 547.14 351.22 547.41 351.62 546.4 347.54 539.23 346.35 538.77 346.14 539.97"/>
    <polyline class="cls-14" points="344.78 540.78 344.98 539.62 346.14 539.97 350.19 547.32 349.75 548.26 348.7 548.08"/>
    <polyline class="cls-14" points="343.23 541.56 343.62 540.46 344.78 540.78 348.7 548.08 348.36 549.07 347.13 548.72"/>
    <line class="cls-14" x1="353.06" y1="545.51" x2="354.46" y2="545.51"/>
    <line class="cls-14" x1="349.02" y1="538.4" x2="349.62" y2="536.56"/>
    <polygon class="cls-9" points="347.69 549.61 342.66 540.59 349.62 536.56 354.8 545.5 347.69 549.61"/>
    <line class="cls-12" x1="399.24" y1="443.29" x2="296.92" y2="383.9"/>
    <line class="cls-12" x1="402.91" y1="436.84" x2="301.1" y2="377.75"/>
    <rect class="cls-12" x="332.51" y="365.94" width="19.17" height="117.21" transform="translate(-196.62 508.54) rotate(-60)"/>
    <path class="cls-12" d="M301.36,377.9l10.85-18.79,92.49,53.4c-3.24,5.8-7.93,13.09-11.17,18.89"/>
    <rect class="cls-12" x="291.89" y="354.88" width="7.34" height="7.34" transform="translate(753.84 281.86) rotate(120)"/>
    <polyline class="cls-12" points="286.91 379.33 288.42 379.2 288.82 380.52 282.94 390.73 281.57 390.85 280.95 389.67"/>
    <polyline class="cls-12" points="278.99 388.45 279.6 389.71 280.95 389.67 286.91 379.33 286.49 378.09 284.87 378.24"/>
    <polyline class="cls-12" points="282.93 377.03 284.35 376.85 284.87 378.24 278.99 388.45 277.6 388.57 276.97 387.38"/>
    <polyline class="cls-12" points="281.22 375.82 282.48 375.71 282.95 376.99 276.94 387.44 275.76 387.39 275.44 385.86"/>
    <line class="cls-12" x1="282.87" y1="390.86" x2="283.33" y2="393.24"/>
    <line class="cls-12" x1="288.99" y1="380.48" x2="291.27" y2="379.69"/>
    <line class="cls-12" x1="305.27" y1="392.06" x2="295.79" y2="408.47"/>
    <line class="cls-12" x1="314.65" y1="397.51" x2="305.01" y2="414.21"/>
    <line class="cls-12" x1="323.43" y1="402.7" x2="313.84" y2="419.31"/>
    <line class="cls-12" x1="387.53" y1="440.09" x2="377.93" y2="456.79"/>
    <line class="cls-12" x1="382.73" y1="424.73" x2="393.52" y2="406.05"/>
    <line class="cls-12" x1="356.16" y1="409.71" x2="367.02" y2="390.9"/>
    <line class="cls-12" x1="338.86" y1="399.67" x2="349.77" y2="380.79"/>
    <line class="cls-12" x1="320.63" y1="388.57" x2="331.17" y2="370.32"/>
    <line class="cls-12" x1="377.3" y1="433.75" x2="367.7" y2="450.45"/>
    <line class="cls-12" x1="350.76" y1="418.1" x2="341.16" y2="434.8"/>
    <line class="cls-12" x1="404.05" y1="434.71" x2="397.07" y2="446.35"/>
    <path class="cls-12" d="M412.31,494.28c0,3.65,0,11.27,0,11.24"/>
    <polyline class="cls-12" points="399.28 424.29 399.38 422.91 400.48 422.39 407.73 426.74 407.64 428 406.63 428.7"/>
    <polyline class="cls-12" points="405.39 430.66 406.47 429.96 406.63 428.7 399.28 424.29 398.24 424.82 398.13 426.31"/>
    <polyline class="cls-12" points="396.91 428.23 396.97 426.94 398.13 426.31 405.39 430.66 405.29 431.93 404.26 432.64"/>
    <polyline class="cls-12" points="395.93 430.08 395.81 428.79 396.88 428.22 404.3 432.67 404.1 433.76 403.07 434.36"/>
    <line class="cls-12" x1="407.83" y1="426.8" x2="410.01" y2="425.42"/>
    <line class="cls-12" x1="400.5" y1="422.33" x2="400.69" y2="419.76"/>
    <path class="cls-12" d="M410.3,425.59c-3.13-1.88-9.66-5.8-9.64-5.78"/>
  </g>
  <g id="outlines">
    <polygon class="cls-16" points="464.08 487.84 436.99 487.84 436.99 606.94 423.77 606.94 423.77 487.84 396.62 487.84 396.39 612.62 412.61 612.62 412.61 624.16 453.33 624.16 453.33 613.2 464.37 613.2 464.08 487.84"/>
    <path class="cls-16" d="M419.23,412.87l-108.32-64.15-6.34,10.71-10.17-5.87-19.75,34.21,6.5,3.75-7.87,13.28,110.6,65.51c4.67-8.38,9.35-16.75,14.02-25.12-33.84-19.37-67.68-38.74-101.52-58.11l6.68-11.58,101.36,60.03"/>
    <polygon class="cls-16" points="418.12 412.87 441.71 412.87 473.69 468.1 464.08 487.84 396.62 487.84 383.69 469.84 418.12 412.87"/>
    <path class="cls-16" d="M384.11,469.62l-33.73,20.01-23.25-40.27-3.23,1.86-9.79-16.95-52.54,30.34,9.79,16.95-3.23,1.86,59.32,102.75,2.93-1.69,8.53,14.78,52.54-30.34-8.53-14.78,3.53-2.04-24.27-42.04,34.21-20.3M295.5,486.57l20.28-11.71,15.66,27.13-20.28,11.71-15.66-27.13ZM336.93,558.33l-15.66-27.13,20.28-11.71,15.66,27.13-20.28,11.71Z"/>
  </g>
  <g id="buildings">
    <rect class="cls-37" x="539.58" y="13.65" width="29.71" height="142.43" transform="translate(4.01 -23.01) rotate(2.39)"/>
    <rect class="cls-56" x="653.45" y="-17.65" width="17.62" height="102.97" transform="translate(588.87 692.88) rotate(-86.57)"/>
    <rect class="cls-56" x="763.6" y="9.22" width="80.99" height="132.62" transform="translate(664.16 870.96) rotate(-85.39)"/>
    <rect class="cls-25" x="784.61" y="-10.16" width="42.1" height="132.62" transform="translate(684.92 854.69) rotate(-85.39)"/>
    <rect class="cls-23" x="794.71" y="16.69" width="32.83" height="118.93" transform="translate(670.02 878.53) rotate(-85.39)"/>
    <rect class="cls-60" x="795.47" y="21.01" width="32.83" height="116.15" transform="translate(667.79 881.98) rotate(-85.39)"/>
    <rect class="cls-37" x="387.16" y="18.69" width="40.65" height="219.27" transform="translate(-19.55 140.56) rotate(-19.12)"/>
    <rect class="cls-37" x="426.21" y="53.13" width="40.65" height="123.31" transform="translate(484.36 574.29) rotate(-109.12)"/>
    <rect class="cls-37" x="440.22" y="-19.82" width="36.66" height="97.04" transform="translate(429.85 487.26) rotate(-90)"/>
    <rect class="cls-56" x="776.73" y="137.4" width="80.53" height="93.55" transform="translate(584.27 988.69) rotate(-86.57)"/>
    <rect class="cls-60" x="766.24" y="160.71" width="59.81" height="31.81" transform="translate(572.22 960.77) rotate(-86.57)"/>
    <rect class="cls-51" x="770.01" y="164" width="52.27" height="25.23" transform="translate(572.22 960.77) rotate(-86.57)"/>
    <rect class="cls-60" x="809.92" y="164.01" width="59.81" height="31.81" transform="translate(610 1007.47) rotate(-86.57)"/>
    <rect class="cls-51" x="813.7" y="167.3" width="52.27" height="25.23" transform="translate(610 1007.47) rotate(-86.57)"/>
    <rect class="cls-36" x="795.92" y="173.8" width="44.14" height="12" transform="translate(589.57 985.57) rotate(-86.57)"/>
    <rect class="cls-60" x="795.87" y="174.46" width="44.23" height="10.77" transform="translate(589.53 985.61) rotate(-86.57)"/>
    <rect class="cls-56" x="576.57" y="44.46" width="16.83" height="46.97" transform="translate(5.11 -34.88) rotate(3.43)"/>
    <rect class="cls-56" x="898.44" y="208.3" width="30.09" height="29.3" transform="translate(636.29 1121.46) rotate(-86.57)"/>
    <rect class="cls-21" x="257" y="281.14" width="26.7" height="36.22" transform="translate(664.68 214.74) rotate(120)"/>
    <rect class="cls-21" x="230.74" y="301.06" width="32.52" height="57.64" transform="translate(656.18 280.91) rotate(120)"/>
    <rect class="cls-21" x="224.7" y="332.83" width="7.93" height="15.17" transform="translate(636.19 294.67) rotate(117.49)"/>
    <polygon class="cls-25" points="342.97 63.03 331.3 63.03 323.04 71.49 323.04 83.45 331.3 91.92 342.97 91.92 351.22 83.45 351.22 71.49 342.97 63.03"/>
    <rect class="cls-56" x="313.39" y="13.78" width="27.39" height="12.26"/>
    <rect class="cls-56" x="333.8" y="4.39" width="6.98" height="21.65"/>
    <rect class="cls-45" x="671.8" y="300.22" width="34.59" height="41.11" transform="translate(26.25 692.77) rotate(-54.26)"/>
    <rect class="cls-57" x="651.8" y="343.93" width="26.37" height="31.49" transform="translate(21.01 755.73) rotate(-60)"/>
    <rect class="cls-56" x="734.84" y="278.46" width="6.42" height="14.15" transform="translate(416.55 1008.64) rotate(-87.18)"/>
    <rect class="cls-56" x="720.71" y="353.22" width="18.43" height="77.01" transform="translate(1093.61 1136.02) rotate(-144.26)"/>
    <rect class="cls-56" x="715.86" y="375.57" width="7.41" height="16.85" transform="translate(1079.37 1115.96) rotate(-144.26)"/>
    <rect class="cls-56" x="736.9" y="385.21" width="6.27" height="27.02" transform="translate(1107.85 1154.59) rotate(-144.26)"/>
    <rect class="cls-56" x="706.68" y="425.68" width="7.41" height="4.87" transform="translate(1036.98 1190.53) rotate(-144.26)"/>
    <rect class="cls-56" x="754.15" y="360.26" width="7.41" height="3.75" transform="translate(1161.51 1098.73) rotate(-144.26)"/>
    <polygon class="cls-45" points="671.31 458.03 665.86 457.48 662.66 461.93 664.91 466.93 670.36 467.47 673.56 463.03 671.31 458.03"/>
    <polygon class="cls-45" points="683.63 441.4 678.18 440.85 674.98 445.3 677.24 450.29 682.69 450.84 685.89 446.4 683.63 441.4"/>
    <polygon class="cls-45" points="695.76 424.52 690.31 423.97 687.11 428.42 689.37 433.41 694.82 433.96 698.02 429.51 695.76 424.52"/>
    <polygon class="cls-45" points="756.83 345.46 752.08 342.72 747.34 345.46 747.34 350.94 752.08 353.68 756.83 350.94 756.83 345.46"/>
    <polygon class="cls-45" points="775.37 335.99 770.63 333.25 765.89 335.99 765.89 341.47 770.63 344.21 775.37 341.47 775.37 335.99"/>
    <rect class="cls-56" x="920" y="508.49" width="16.84" height="49.69" transform="translate(1370.53 1508.5) rotate(-144.26)"/>
    <rect class="cls-56" x="471.13" y="624.08" width="163.63" height="23.92" transform="translate(1105.89 1272.08) rotate(180)"/>
    <rect class="cls-56" x="368.19" y="636.04" width="60.5" height="11.96" transform="translate(796.88 1284.04) rotate(180)"/>
    <rect class="cls-56" x="284.31" y="615.16" width="34.93" height="13.37" transform="translate(784.52 127.15) rotate(70.19)"/>
    <rect class="cls-56" x="280.72" y="621.55" width="22.22" height="7.77" transform="translate(781.31 138.87) rotate(70.19)"/>
    <rect class="cls-56" x="286.07" y="588.38" width="10.1" height="7.77" transform="translate(749.64 117.62) rotate(70.19)"/>
    <rect class="cls-56" x="933.71" y="280.54" width="12.47" height="14.09" transform="translate(596.65 1208.64) rotate(-86.57)"/>
    <path class="cls-34" d="M895.16,44.23v7.22l-5.32-.47c-2.9-.26-5.45,2.11-5.68,5.27l-.13,1.81-.07.85h-6.63c.1-1.39.2-2.78.31-4.16.31-4.26,1.45-8.07,5.51-10.22,2.77-1.47,4.41-1.11,7.39-.77,1.54.18,3.08.35,4.62.47Z"/>
    <line class="cls-3" x1="883.98" y1="58.91" x2="883.96" y2="58.91"/>
    <rect class="cls-52" x="870.24" y="57.7" width="11.87" height="47.54" transform="translate(9.38 -70.17) rotate(4.61)"/>
    <path class="cls-34" d="M890.36,120.66l.38-7.21-5.34.19c-2.91.11-5.33-2.4-5.39-5.56l-.03-1.81-.03-.85-6.62-.35c.03,1.39.05,2.79.09,4.17.08,4.27,1.02,8.14,4.96,10.5,2.69,1.61,4.35,1.34,7.34,1.16,1.55-.1,3.09-.19,4.64-.23Z"/>
    <rect class="cls-37" x="232.89" y="90.05" width="18.44" height="180.21" transform="translate(520.54 63.76) rotate(120.66)"/>
    <rect class="cls-37" x="231.07" y="167.29" width="44.14" height="135.66" transform="translate(584.48 137.26) rotate(120.66)"/>
    <rect class="cls-37" x="224.1" y="44.07" width="18.44" height="163.44" transform="translate(460.5 -10.77) rotate(120.66)"/>
    <rect class="cls-37" x="216.95" y="25.79" width="18.44" height="112.58" transform="translate(412.1 -70.62) rotate(120.66)"/>
    <rect class="cls-37" x="228.74" y=".97" width="18.44" height="99.53" transform="translate(402.95 -128.1) rotate(120.66)"/>
    <rect class="cls-57" x="322.11" y="29.32" width="13.09" height="8.83" transform="translate(7.08 109.52) rotate(-19.12)"/>
  </g>
  <g id="highlights">
    <rect class="cls-21" x="219.11" y="30.32" width="8.57" height="112.63" transform="translate(411.83 -61.36) rotate(120.66)"/>
    <rect class="cls-21" x="226.48" y="48.24" width="8.57" height="163.7" transform="translate(460.35 -2.08) rotate(120.66)"/>
    <rect class="cls-21" x="235.36" y="94.25" width="8.57" height="180.29" transform="translate(520.46 72.28) rotate(120.66)"/>
    <rect class="cls-21" x="236.5" y="177.2" width="22.33" height="135.27" transform="translate(584.57 156.63) rotate(120.66)"/>
    <rect class="cls-56" x="418.84" y="208.11" width="41.09" height="24.79" transform="translate(-46.41 145.1) rotate(-17.83)"/>
    <polygon class="cls-2" points="391.13 17.3 420.61 102.61 405.87 127.65 434.7 142 462.35 224.43 433.65 211.91 424 238.78 352 31.13 378.09 44.16 391.13 17.3"/>
    <polygon class="cls-56" points="511.13 113.83 486.09 100.91 405.87 127.65 433.44 141.38 511.13 113.83"/>
    <polygon class="cls-45" points="433.65 211.29 424 238.16 352 30.5 378.09 43.54 433.65 211.29"/>
    <polyline class="cls-24" points="601.57 499.57 565.61 484.07 529.21 498.6 513.68 534.63 528.13 571.06"/>
    <rect class="cls-21" x="231.5" y="5.57" width="8.57" height="98.9" transform="translate(403.34 -119.75) rotate(120.66)"/>
    <path class="cls-33" d="M449.94,351.21c1.99,2.87,3.99,5.73,5.98,8.6-2.45,2.13-6.53,5.11-12.27,6.85-11.44,3.48-21.26-.43-24.26-1.76-3.16-1.14-10.32-4.19-16.24-11.54-6.67-8.28-7.77-17.06-8.02-20.35l11.54-1.3c.31,1.52,3.18,14.32,15.8,20.48,13.61,6.65,26.39-.36,27.46-.97Z"/>
    <path class="cls-11" d="M406.17,331.56c.35,1.59,3.29,14.08,15.77,20.38,14.05,7.09,27.39-.13,28.36-.67"/>
    <polyline class="cls-24" points="343.07 63.03 331.34 63.03 323.04 71.49 323.04 83.45 331.34 91.92"/>
    <path class="cls-22" d="M5.16,121.7l11.75,33.51v27.53l14.96,25.13,7.72,32.31,33.64,35.9,24.89,90.95,42.38,81.38,5.7,29.92,16.01,4.79v52.66s32.08,17.95,27.8,26.33c-4.27,8.38-4.27,33.01-4.27,33.01l31.35,22.04-6.77,30.84h45.95l-22.44-32.04,1.07-14.36-19.23-19.15v-16.75l-13.89-28.72-1.07-22.74-20.3-22.74,2.14-31.12-20.32-26.33v-26.33l-31.5-78.99-4.81-53.85-19.23-16.56-2.14-45.67-17.35-35.9-31.3-47.87-29.35-59.84L-.19,17.58v105.32l5.35-1.2Z"/>
    <path class="cls-42" d="M108.13,648l14.36-26.51-68.22-30.21s2.21-27.44,12.54-35.99c10.32-8.56-59.89-34.35-59.89-34.35l4.73-58.65c-3.61-.84-7.21-1.68-10.82-2.51.26-35.43.51-70.87.77-106.3l16.83,24.84-2.37,29.32,43.14,32.99-7.58,34.27,43.42,28.99.35,25.52,28.52,34.5-1.51,18.66,41.35,24.8-3.68,15.8,29.59,24.82h-81.52Z"/>
    <polygon class="cls-30" points="471.13 624.09 481.64 636.68 623.93 636.68 634.76 624.09 471.13 624.09"/>
    <polygon class="cls-25" points="471.13 624.09 471.13 648.35 482.23 636.22 471.13 624.09"/>
    <polygon class="cls-2" points="470.88 648.32 481.41 635.24 623.92 635.24 634.76 648.32 470.88 648.32"/>
    <path class="cls-21" d="M572.24,14.41l-16.84,16.36-3.52,111.62c-5.08,4.67-10.17,9.35-15.25,14.02,9.9.08,19.79.15,29.69.23,1.98-47.41,3.95-94.82,5.93-142.23Z"/>
    <rect class="cls-2" x="448.06" y="-11.98" width="20.99" height="97.04" transform="translate(422.02 495.09) rotate(-90)"/>
    <path class="cls-27" d="M431.35,275.41c-1.36,4.93-1.28,10.06,1.54,13.49,3.85,4.68,11.12,3.84,17.04,2.57,8.75-1.88,20.87-4.86,24.04-14.51,1.33-4.05.62-8.52,1.73-12.63,1.09-4.02,3.81-7.36,5.55-11.14,2.88-6.26,2.88-13.3,5.11-19.74,2.42-7.01,7.81-10.31,12.84-15.34,4.23-4.23,7.93-9.09,10.07-14.73,3.52-9.28,2.57-21.83-7.78-25.85s-17.77,6.65-19.19,16.01c-2.48,16.33,4.1,31.24-6.29,46.07-5.27,7.53-13.1,13.11-21.71,16.31-5.32,1.98-11.13,3.2-15.49,6.84-3.08,2.58-6.06,7.51-7.48,12.65Z"/>
    <path class="cls-29" d="M435.2,276.09c-.06.69-.58,7.74,4.36,11.49,3.38,2.56,7.36,2.12,10.91,1.73,2.44-.27,11.36-1.26,16.19-8.01,3.04-4.26,1.3-6.38,4.51-16.72.92-2.98,1.47-4.08,4.95-12.24,8.42-19.7,7.12-17.64,8.77-20.86,6.42-12.5,9.6-11.64,14.69-23.51,2.45-5.71,4.52-12.43,2.16-18.75-1.44-3.84-3.44-4.69-3.85-4.85-4.12-1.6-9.35,3.2-9.86,3.68-11.04,10.14,2.57,29.58-8.42,48.88-3.43,6.02-9.23,12-9.78,12.56-4.2,4.29-7.28,7.44-12.33,9.7-6.07,2.73-7.5.82-12.4,3.53-1.75.97-9.2,5.43-9.9,13.38Z"/>
    <path class="cls-40" d="M487.59,210.25c.21.32.42.63.69.84.45.35.98.38,1.49.4,1.22.05,2.48.09,3.63-.52.86-.46,1.6-1.25,2.33-2.03,3-3.22,5.12-7.1,3.45-12.54-1.08-3.55-3.38-6.38-6.16-6.26-7.51.33-10.14,12.86-5.43,20.12Z"/>
    <path class="cls-40" d="M449.85,265.51c-2.43,1.34-4.94,2.93-6.12,5.44-.92,1.95-.9,4.19-.87,6.35.03,2.28.21,4.87,1.98,6.31,1.11.9,2.61,1.12,4.03,1.29,1.89.22,3.83.41,5.68-.04,1.17-.28,2.27-.8,3.31-1.41,4.04-2.37,7.34-6.5,7.51-11.18.13-3.56-1.95-6.98-5.08-8.63-3.98-2.1-6.84-.11-10.44,1.87Z"/>
    <rect class="cls-29" x="629.11" y="62.69" width="56.65" height="24.91" transform="translate(5.67 -39.2) rotate(3.43)"/>
  </g>
</svg>