<?xml version="1.0" encoding="UTF-8"?>
<svg id="Layer_1" data-name="Layer 1" xmlns="http://www.w3.org/2000/svg" width="800" height="800" viewBox="0 0 800 800">
  <defs>
    <style>
      .cls-1 {
        fill: #90d5ff;
      }
    </style>
  </defs>
  <path class="cls-1" d="M136.07,300c-.71-8.24-1.08-16.56-1.08-25C135.01,123.13,253.66,0,400.01,0s265,123.13,265,275c0,8.42-.36,16.76-1.07,25h1.07c0,150.29-265,500-265,500,0,0-265-348.89-265-500h1.06ZM400.01,350c56.86,1.6,104.29-43.14,106-100-1.71-56.86-49.14-101.6-106-100-56.86-1.6-104.29,43.14-106,100,1.71,56.86,49.14,101.6,106,100Z"/>
</svg>